<?xml version="1.0" encoding="utf-8"?>
<!-- Generator: Adobe Illustrator 26.0.2, SVG Export Plug-In . SVG Version: 6.00 Build 0)  -->
<svg version="1.1" id="Ebene_1" xmlns="http://www.w3.org/2000/svg" xmlns:xlink="http://www.w3.org/1999/xlink" x="0px" y="0px"
	 viewBox="0 0 595.28 841.89" enable-background="new 0 0 595.28 841.89" xml:space="preserve">
<g>
	<path fill-rule="evenodd" clip-rule="evenodd" fill="#CE2026" d="M511.3,172.06v19.78c-1.02,118.84-12.83,313.88-31.49,370.37h-357
		v-0.75c-11.3,0.75-21.34,0.48-38.84,1.1c19.66-58.35,30.83-273.82,30.83-390.62C246.84,173.59,379.21,172.06,511.3,172.06
		L511.3,172.06z"/>
</g>
<g>
	<path fill-rule="evenodd" clip-rule="evenodd" fill="#FFFFFF" d="M212.16,336.64c10.23,0,18.52,8.3,18.52,18.53
		c0,10.23-8.29,18.52-18.52,18.52c-10.23,0-18.52-8.29-18.52-18.52C193.64,344.93,201.94,336.64,212.16,336.64L212.16,336.64z
		 M486.35,194.86v17.47c-0.9,104.96-11.33,277.23-27.82,327.12H143.23v-0.66c-9.98,0.67-18.85,0.43-34.3,0.97
		c17.36-51.54,27.23-241.85,27.23-345.01C252.77,196.2,369.69,194.86,486.35,194.86L486.35,194.86z M280.63,420.08l13.82-17.69
		l32.89,0.21l14.32,17.35l-30.11,53.31L280.63,420.08L280.63,420.08z M350.23,357.37h103.7v15.33h-103.7V357.37L350.23,357.37z
		 M350.23,332.44h103.7v15.33h-103.7V332.44L350.23,332.44z M337.48,288.49l133.71-48.59l4.1,11.27l-133.7,48.59L337.48,288.49
		L337.48,288.49z M281.52,288.49L147.77,239.9l-4.1,11.27l133.75,48.59L281.52,288.49L281.52,288.49z M213.16,313.88
		c23.31,0,42.21,18.9,42.21,42.21c0,23.31-18.9,42.21-42.21,42.21c-23.31,0-42.21-18.91-42.21-42.21
		C170.95,332.78,189.85,313.88,213.16,313.88L213.16,313.88z"/>
</g>
</svg>
